<svg id="visual" viewBox="0 0 960 540" width="960" height="540" xmlns="http://www.w3.org/2000/svg" xmlns:xlink="http://www.w3.org/1999/xlink" version="1.1"><rect x="0" y="0" width="960" height="540" fill="#fff"></rect><defs><linearGradient id="grad1_0" x1="43.8%" y1="100%" x2="100%" y2="0%"><stop offset="14.444444444444446%" stop-color="#ffffff" stop-opacity="1"></stop><stop offset="85.55555555555554%" stop-color="#ffffff" stop-opacity="1"></stop></linearGradient></defs><defs><linearGradient id="grad2_0" x1="0%" y1="100%" x2="56.3%" y2="0%"><stop offset="14.444444444444446%" stop-color="#ffffff" stop-opacity="1"></stop><stop offset="85.55555555555554%" stop-color="#ffffff" stop-opacity="1"></stop></linearGradient></defs><g transform="translate(960, 540)"><path d="M-270 0C-268.1 -37.5 -266.3 -75.1 -249.4 -103.3C-232.6 -131.6 -200.8 -150.5 -175.4 -175.4C-149.9 -200.2 -130.7 -230.9 -102.6 -247.6C-74.4 -264.3 -37.2 -267.2 0 -270L0 0Z" fill="#cee2f1"></path></g><g transform="translate(0, 0)"><path d="M270 0C247 29.8 224 59.6 206.9 85.7C189.9 111.9 178.7 134.4 164 164C149.4 193.7 131.2 230.6 103.3 249.4C75.4 268.3 37.7 269.2 0 270L0 0Z" fill="#cee2f1"></path></g></svg>