<svg id="visual" viewBox="0 0 900 600" width="900" height="600" xmlns="http://www.w3.org/2000/svg" xmlns:xlink="http://www.w3.org/1999/xlink" version="1.1"><rect x="0" y="0" width="900" height="600" fill="#fff"></rect><path d="M698 600L731 600L731 545L726 545L726 491L681 491L681 436L747 436L747 382L678 382L678 327L735 327L735 273L679 273L679 218L675 218L675 164L698 164L698 109L690 109L690 55L718 55L718 0L900 0L900 55L900 55L900 109L900 109L900 164L900 164L900 218L900 218L900 273L900 273L900 327L900 327L900 382L900 382L900 436L900 436L900 491L900 491L900 545L900 545L900 600L900 600Z" fill="#ffffff"></path><path d="M738 600L776 600L776 545L758 545L758 491L733 491L733 436L726 436L726 382L721 382L721 327L720 327L720 273L745 273L745 218L765 218L765 164L734 164L734 109L744 109L744 55L748 55L748 0L900 0L900 55L900 55L900 109L900 109L900 164L900 164L900 218L900 218L900 273L900 273L900 327L900 327L900 382L900 382L900 436L900 436L900 491L900 491L900 545L900 545L900 600L900 600Z" fill="#cee2f1"></path><path d="M808 600L784 600L784 545L771 545L771 491L807 491L807 436L764 436L764 382L760 382L760 327L800 327L800 273L779 273L779 218L790 218L790 164L813 164L813 109L809 109L809 55L794 55L794 0L900 0L900 55L900 55L900 109L900 109L900 164L900 164L900 218L900 218L900 273L900 273L900 327L900 327L900 382L900 382L900 436L900 436L900 491L900 491L900 545L900 545L900 600L900 600Z" fill="#afd2e9"></path><path d="M831 600L807 600L807 545L801 545L801 491L822 491L822 436L833 436L833 382L834 382L834 327L816 327L816 273L829 273L829 218L822 218L822 164L834 164L834 109L798 109L798 55L812 55L812 0L900 0L900 55L900 55L900 109L900 109L900 164L900 164L900 218L900 218L900 273L900 273L900 327L900 327L900 382L900 382L900 436L900 436L900 491L900 491L900 545L900 545L900 600L900 600Z" fill="#cee2f1"></path><path d="M852 600L858 600L858 545L874 545L874 491L869 491L869 436L865 436L865 382L850 382L850 327L851 327L851 273L877 273L877 218L878 218L878 164L834 164L834 109L871 109L871 55L865 55L865 0L900 0L900 55L900 55L900 109L900 109L900 164L900 164L900 218L900 218L900 273L900 273L900 327L900 327L900 382L900 382L900 436L900 436L900 491L900 491L900 545L900 545L900 600L900 600Z" fill="#ffffff"></path></svg>